<svg width="960" height="34" xmlns="http://www.w3.org/2000/svg">

 <g>
  <title>Layer 1</title>
  <g>
   <path stroke-linecap="round" fill="#ffffff" d="m0,10.93188l5.7,0c5.6,0 17,0 28.5,-0.2c11.5,-0.1 23.1,-0.5 34.6,-0.8c11.5,-0.3 22.9,-0.7 34.2,-2.8c11.3,-2.2 22.7,-6.2 34,-6.5c11.3,-0.4 22.7,3 34.2,3.1c11.5,0.2 23.1,-2.8 34.6,-3.3c11.5,-0.5 22.9,1.5 34.2,3.3c11.3,1.9 22.7,3.5 34.2,4.2c11.5,0.7 23.1,0.3 34.6,0.3c11.5,0 22.9,0.4 34.2,1c11.3,0.7 22.7,1.7 34,1c11.3,-0.6 22.7,-3 34.2,-5.3c11.5,-2.3 23.1,-4.7 34.6,-4.8c11.5,-0.2 22.9,1.8 34.2,4c11.3,2.1 22.7,4.5 34.2,5c11.5,0.5 23.1,-0.9 34.6,-2.9c11.5,-2 22.9,-4.6 34.2,-4c11.3,0.7 22.7,4.7 34,5c11.3,0.4 22.7,-3 34.2,-2.8c11.5,0.2 23.1,3.8 34.6,4.2c11.5,0.3 22.9,-2.7 34.2,-5.2c11.3,-2.5 22.7,-4.5 34.2,-2.8c11.5,1.6 23.1,7 34.6,8.5c11.5,1.5 22.9,-0.9 34.2,-2.2c11.3,-1.3 22.7,-1.7 34,-2.8c11.3,-1.2 22.7,-3.2 34.2,-2.7c11.5,0.5 23.1,3.5 34.6,5c11.5,1.5 22.9,1.5 28.5,1.5l5.7,0l0,26l-5.7,0c-5.6,0 -17,0 -28.5,0c-11.5,0 -23.1,0 -34.6,0c-11.5,0 -22.9,0 -34.2,0c-11.3,0 -22.7,0 -34,0c-11.3,0 -22.7,0 -34.2,0c-11.5,0 -23.1,0 -34.6,0c-11.5,0 -22.9,0 -34.2,0c-11.3,0 -22.7,0 -34.2,0c-11.5,0 -23.1,0 -34.6,0c-11.5,0 -22.9,0 -34.2,0c-11.3,0 -22.7,0 -34,0c-11.3,0 -22.7,0 -34.2,0c-11.5,0 -23.1,0 -34.6,0c-11.5,0 -22.9,0 -34.2,0c-11.3,0 -22.7,0 -34.2,0c-11.5,0 -23.1,0 -34.6,0c-11.5,0 -22.9,0 -34.2,0c-11.3,0 -22.7,0 -34,0c-11.3,0 -22.7,0 -34.2,0c-11.5,0 -23.1,0 -34.6,0c-11.5,0 -22.9,0 -34.2,0c-11.3,0 -22.7,0 -34.2,0c-11.5,0 -23.1,0 -34.6,0c-11.5,0 -22.9,0 -34.2,0c-11.3,0 -22.7,0 -34,0c-11.3,0 -22.7,0 -34.2,0c-11.5,0 -23.1,0 -34.6,0c-11.5,0 -22.9,0 -28.5,0l-5.7,0l0,-23z"/>
  </g>
 </g>
</svg>